<svg version="1.2" xmlns="http://www.w3.org/2000/svg" viewBox="0 0 151 39" width="151" height="39">
  <defs>
    <linearGradient id="P" gradientUnits="userSpaceOnUse" />
    <linearGradient id="g1" x2="1" href="#P" gradientTransform="matrix(7.624,0,0,1.95,71.688,19.5)">
      <stop stop-color="#0f172b" />
      <stop offset=".54" stop-color="var(--color-background)" />
      <stop offset=".54" stop-color="var(--color-primary)" />
      <stop offset="1" stop-color="var(--color-primary)" />
    </linearGradient>
  </defs>
  <style>
    .a {
      fill: url(#g1)
    }

    .b {
      fill: #727272
    }
  </style>
  <path fill-rule="evenodd" class="a" d="m151.7 0v39h-152.4v-39z" />
  <path class="b"
    d="m25.2 11v8.7l-5.7-8.7h-5.3v17h5.3v-8.5l5.7 8.5h5.3v-17zm18.4 0h-11.4v17h11.4v-4.2h-6v-2.4h5.2v-4.1h-5.2v-2h6zm19.6 8.4c0-5.1-3.8-8.7-8.7-8.7-4.8 0-8.8 3.6-8.8 8.7 0 5.1 4 8.7 8.8 8.7 4.8 0 8.7-3.6 8.7-8.7zm-12 0c0-2.3 1.1-3.8 3.3-3.8 2.1 0 3.3 1.5 3.3 3.8 0 2.2-1.2 3.7-3.3 3.7-2.2 0-3.3-1.5-3.3-3.7zm14 8.5h5.4v-8.4l2.6 8.4h4.5l2.6-8.4v8.4h5.4v-16.9h-6.6l-3.6 10.2-3.7-10.2h-6.6zm39-8.6c0-5.1-3.8-8.7-8.7-8.7-4.8 0-8.8 3.6-8.8 8.7 0 5.1 4 8.7 8.8 8.7 4.8 0 8.7-3.6 8.7-8.7zm-12 0c0-2.3 1.1-3.8 3.3-3.8 2.1 0 3.3 1.5 3.3 3.8 0 2.2-1.2 3.8-3.3 3.8-2.2 0-3.3-1.6-3.3-3.8zm25-8.4v8.7l-5.6-8.7h-5.4v17h5.4v-8.6l5.6 8.6h5.3v-17zm21.2 11.7c0-5.2-7.9-4.9-7.9-7 0-0.6 0.3-0.9 0.8-0.9 0.5 0 1.1 0.3 1.1 1.4h5.8c-0.2-3.6-2.8-5.5-6.9-5.5-3.6 0-6.5 1.8-6.5 5.2-0.1 5.8 7.9 4.9 7.9 7.2 0 0.6-0.5 0.9-1 0.9-0.5 0-1.2-0.2-1.3-1.5h-5.7c0.3 3.8 3.3 5.6 7.2 5.6 4.1 0 6.5-2.3 6.5-5.4z" />
</svg>